<svg width="266" height="38" viewBox="0 0 266 38" fill="none" xmlns="http://www.w3.org/2000/svg">
<path d="M23.6119 1C22.678 1 21.8479 1.5707 21.4847 2.40082L12.1459 25.7997L4.51927 2.55647C4.20798 1.62259 3.32597 1 2.34021 1H2.23646C0.731876 1 -0.357669 2.50458 0.10927 3.95728L10.9008 36.6949C11.0564 37.0581 11.3677 37.3175 11.7828 37.3175C12.1459 37.3175 12.4572 37.11 12.6129 36.7468L14.325 32.4406L25.6872 4.06105C26.2579 2.60835 25.1684 1 23.6119 1ZM44.2091 1H44.1054C43.1715 1 42.2895 1.62259 41.9782 2.55647L34.2996 25.7997L30.6679 16.6684C30.3047 15.7864 29.4746 15.2157 28.4888 15.2157C26.9324 15.2676 25.8947 16.8759 26.5173 18.3286L33.8327 36.7468C33.9884 37.11 34.3515 37.3175 34.7147 37.3175C35.0779 37.3175 35.4411 37.0581 35.5448 36.6949L46.3363 3.95728C46.8551 2.50458 45.7656 1 44.2091 1Z" fill="#F6BE00"/>
<path d="M89.3475 33.049H83.2773C87.3241 29.6247 89.8664 24.4365 89.8664 18.6776C89.8664 8.35303 81.7208 0 71.7076 0C61.6943 0 53.5488 8.35303 53.5488 18.6776C53.5488 29.0021 61.6943 37.3552 71.7076 37.3552H89.3475C90.5408 37.3552 91.4747 36.4213 91.4747 35.228C91.4747 34.0347 90.5408 33.049 89.3475 33.049ZM57.855 18.6776C57.855 10.7396 64.0809 4.30622 71.7076 4.30622C79.3343 4.30622 85.5601 10.7396 85.5601 18.6776C85.5601 26.6156 79.3343 33.049 71.7076 33.049C64.0809 33.049 57.855 26.6156 57.855 18.6776Z" fill="#F6BE00"/>
<path d="M120.979 32.5301H106.348V2.64597C106.348 1.50456 105.362 0.518799 104.169 0.518799C103.028 0.518799 102.042 1.50456 102.042 2.64597V34.7092C102.042 35.8506 103.028 36.8363 104.169 36.8363H120.979C122.172 36.8363 123.106 35.8506 123.106 34.7092C123.106 33.5159 122.172 32.5301 120.979 32.5301Z" fill="#F6BE00"/>
<path d="M161.506 34.2565L148.484 2.40082C148.121 1.5707 147.29 1 146.408 1H145.319C144.385 1 143.607 1.5707 143.244 2.40082L130.169 34.2565C129.599 35.6054 130.533 37.1619 132.037 37.3175H132.193H132.245H147.809C149.003 37.3175 149.936 36.3318 149.936 35.1904C149.936 33.9971 149.003 33.0113 147.809 33.0113H135.513L145.215 9.35303L145.838 7.79657L146.46 9.35303L157.408 35.9167C157.719 36.7468 158.549 37.3175 159.483 37.3175C161.039 37.3175 162.129 35.7092 161.506 34.2565Z" fill="#F6BE00"/>
<path d="M189.978 0.518799H171.508C170.367 0.518799 169.381 1.50456 169.381 2.64597C169.381 3.83926 170.367 4.82502 171.508 4.82502H189.978C191.171 4.82502 192.157 3.83926 192.157 2.64597C192.157 1.50456 191.171 0.518799 189.978 0.518799ZM187.176 15.824H171.508C170.367 15.824 169.381 16.8098 169.381 18.0031V34.7092C169.381 35.8506 170.367 36.8363 171.508 36.8363C172.701 36.8363 173.687 35.8506 173.687 34.7092V20.1303H187.176C188.37 20.1303 189.356 19.1445 189.356 18.0031C189.356 16.8098 188.37 15.824 187.176 15.824Z" fill="#F6BE00"/>
<path d="M226.303 11.2065C226.303 5.34384 221.478 0.518799 215.564 0.518799H202.593C201.452 0.518799 200.466 1.50456 200.466 2.64597C200.466 3.83926 201.452 4.82502 202.593 4.82502H215.564C219.092 4.82502 221.997 7.67854 221.997 11.2065C221.997 14.7345 219.092 17.6399 215.564 17.6399H202.593C201.452 17.6399 200.518 18.5219 200.466 19.6633V19.7671V34.7092C200.466 35.8506 201.452 36.8363 202.593 36.8363C203.786 36.8363 204.772 35.8506 204.772 34.7092V21.9461H215.564C221.478 21.9461 226.303 17.1211 226.303 11.2065ZM220.544 26.0448C220.181 25.3704 219.507 25.0072 218.78 25.0072C217.12 25.0072 216.134 26.7712 216.964 28.1201L221.478 35.7987C221.841 36.4213 222.516 36.8363 223.242 36.8363C224.902 36.8363 225.888 35.0723 225.058 33.6715L220.544 26.0448Z" fill="#F6BE00"/>
<path d="M265.773 33.7753L252.75 1.91962C252.387 1.0895 251.557 0.518799 250.675 0.518799H249.586C248.652 0.518799 247.873 1.0895 247.51 1.91962L234.436 33.7753C233.865 35.1242 234.799 36.6807 236.304 36.8363H236.459H236.511H252.076C253.269 36.8363 254.203 35.8506 254.203 34.7092C254.203 33.5159 253.269 32.5301 252.076 32.5301H239.78L249.482 8.87183L250.104 7.31537L250.727 8.87183L261.674 35.4355C261.985 36.2656 262.816 36.8363 263.749 36.8363C265.306 36.8363 266.395 35.228 265.773 33.7753Z" fill="#F6BE00"/>
</svg>
