<svg width="74" height="72" viewBox="0 0 74 72" fill="none" xmlns="http://www.w3.org/2000/svg">
<path fill-rule="evenodd" clip-rule="evenodd" d="M50.454 26.1817C50.454 33.4115 44.4301 39.2726 36.9995 39.2726C29.5687 39.2726 23.5449 33.4115 23.5449 26.1817C23.5449 18.9518 29.5687 13.0908 36.9995 13.0908C44.4301 13.0908 50.454 18.9518 50.454 26.1817ZM43.7267 26.1817C43.7267 29.7968 40.7149 32.7272 36.9995 32.7272C33.284 32.7272 30.2722 29.7968 30.2722 26.1817C30.2722 22.5668 33.284 19.6363 36.9995 19.6363C40.7149 19.6363 43.7267 22.5668 43.7267 26.1817Z" fill="#F6BE00"/>
<path fill-rule="evenodd" clip-rule="evenodd" d="M37 0C16.5655 0 0 16.1178 0 36C0 55.8821 16.5655 72 37 72C57.4344 72 74 55.8821 74 36C74 16.1178 57.4344 0 37 0ZM6.72727 36C6.72727 42.8407 9.12403 49.1367 13.145 54.1365C18.6764 47.0909 27.4011 42.5455 37.217 42.5455C46.9052 42.5455 55.5309 46.9738 61.0719 53.8635C64.9619 48.9086 67.2727 42.7169 67.2727 36C67.2727 19.7327 53.7193 6.54545 37 6.54545C20.2808 6.54545 6.72727 19.7327 6.72727 36ZM37 65.4545C29.7674 65.4545 23.1272 62.9866 17.9203 58.8692C22.1782 52.9567 29.2336 49.0909 37.217 49.0909C45.101 49.0909 52.0802 52.8614 56.3537 58.6502C51.1068 62.8989 44.36 65.4545 37 65.4545Z" fill="#F6BE00"/>
</svg>
