<svg width="266" height="38" viewBox="0 0 266 38" fill="none" xmlns="http://www.w3.org/2000/svg">
<path d="M23.6119 0.518555C22.678 0.518555 21.8479 1.08926 21.4847 1.91937L12.1459 25.3182L4.51927 2.07502C4.20798 1.14114 3.32597 0.518555 2.34021 0.518555H2.23646C0.731876 0.518555 -0.357669 2.02314 0.10927 3.47584L10.9008 36.2135C11.0564 36.5767 11.3677 36.8361 11.7828 36.8361C12.1459 36.8361 12.4572 36.6286 12.6129 36.2654L14.325 31.9592L25.6872 3.5796C26.2579 2.1269 25.1684 0.518555 23.6119 0.518555ZM44.2091 0.518555H44.1054C43.1715 0.518555 42.2895 1.14114 41.9782 2.07502L34.2996 25.3182L30.6679 16.187C30.3047 15.305 29.4746 14.7343 28.4888 14.7343C26.9324 14.7862 25.8947 16.3945 26.5173 17.8472L33.8327 36.2654C33.9884 36.6286 34.3515 36.8361 34.7147 36.8361C35.0779 36.8361 35.4411 36.5767 35.5448 36.2135L46.3363 3.47584C46.8551 2.02314 45.7656 0.518555 44.2091 0.518555Z" fill="white"/>
<path d="M89.2987 33.049H83.2285C87.2753 29.6247 89.8175 24.4365 89.8175 18.6776C89.8175 8.35303 81.672 0 71.6588 0C61.6455 0 53.5 8.35303 53.5 18.6776C53.5 29.0021 61.6455 37.3552 71.6588 37.3552H89.2987C90.492 37.3552 91.4259 36.4213 91.4259 35.228C91.4259 34.0347 90.492 33.049 89.2987 33.049ZM57.8062 18.6776C57.8062 10.7396 64.0321 4.30622 71.6588 4.30622C79.2854 4.30622 85.5113 10.7396 85.5113 18.6776C85.5113 26.6156 79.2854 33.049 71.6588 33.049C64.0321 33.049 57.8062 26.6156 57.8062 18.6776Z" fill="white"/>
<path d="M120.93 32.5299H106.299V2.64572C106.299 1.50432 105.314 0.518555 104.12 0.518555C102.979 0.518555 101.993 1.50432 101.993 2.64572V34.7089C101.993 35.8503 102.979 36.8361 104.12 36.8361H120.93C122.123 36.8361 123.057 35.8503 123.057 34.7089C123.057 33.5156 122.123 32.5299 120.93 32.5299Z" fill="white"/>
<path d="M160.845 33.775L147.823 1.91937C147.459 1.08926 146.629 0.518555 145.747 0.518555H144.658C143.724 0.518555 142.946 1.08926 142.583 1.91937L129.508 33.775C128.938 35.124 129.871 36.6804 131.376 36.8361H131.532H131.584H147.148C148.341 36.8361 149.275 35.8503 149.275 34.7089C149.275 33.5156 148.341 32.5299 147.148 32.5299H134.852L144.554 8.87159L145.177 7.31512L145.799 8.87159L156.746 35.4353C157.058 36.2654 157.888 36.8361 158.822 36.8361C160.378 36.8361 161.468 35.2277 160.845 33.775Z" fill="white"/>
<path d="M189.929 0.518555H171.459C170.318 0.518555 169.332 1.50432 169.332 2.64572C169.332 3.83901 170.318 4.82478 171.459 4.82478H189.929C191.123 4.82478 192.108 3.83901 192.108 2.64572C192.108 1.50432 191.123 0.518555 189.929 0.518555ZM187.128 15.8238H171.459C170.318 15.8238 169.332 16.8096 169.332 18.0028V34.7089C169.332 35.8503 170.318 36.8361 171.459 36.8361C172.653 36.8361 173.638 35.8503 173.638 34.7089V20.13H187.128C188.321 20.13 189.307 19.1443 189.307 18.0028C189.307 16.8096 188.321 15.8238 187.128 15.8238Z" fill="white"/>
<path d="M226.254 11.2063C226.254 5.3436 221.429 0.518555 215.515 0.518555H202.544C201.403 0.518555 200.417 1.50432 200.417 2.64572C200.417 3.83901 201.403 4.82478 202.544 4.82478H215.515C219.043 4.82478 221.948 7.6783 221.948 11.2063C221.948 14.7343 219.043 17.6397 215.515 17.6397H202.544C201.403 17.6397 200.469 18.5217 200.417 19.6631V19.7668V34.7089C200.417 35.8503 201.403 36.8361 202.544 36.8361C203.737 36.8361 204.723 35.8503 204.723 34.7089V21.9459H215.515C221.429 21.9459 226.254 17.1209 226.254 11.2063ZM220.495 26.0446C220.132 25.3701 219.458 25.0069 218.731 25.0069C217.071 25.0069 216.085 26.7709 216.916 28.1199L221.429 35.7984C221.792 36.421 222.467 36.8361 223.193 36.8361C224.854 36.8361 225.839 35.0721 225.009 33.6713L220.495 26.0446Z" fill="white"/>
<path d="M265.724 33.775L252.702 1.91937C252.338 1.08926 251.508 0.518555 250.626 0.518555H249.537C248.603 0.518555 247.825 1.08926 247.461 1.91937L234.387 33.775C233.816 35.124 234.75 36.6804 236.255 36.8361H236.411H236.462H252.027C253.22 36.8361 254.154 35.8503 254.154 34.7089C254.154 33.5156 253.22 32.5299 252.027 32.5299H239.731L249.433 8.87159L250.056 7.31512L250.678 8.87159L261.625 35.4353C261.937 36.2654 262.767 36.8361 263.701 36.8361C265.257 36.8361 266.347 35.2277 265.724 33.775Z" fill="white"/>
</svg>
