<svg width="520" height="589" viewBox="0 0 520 589" fill="none" xmlns="http://www.w3.org/2000/svg">
<g opacity="0.38">
<path d="M234.852 2.45659C369.449 9.83031 375.238 157.291 360.766 214.801C346.293 272.311 456.286 285.583 469.313 379.959C482.339 474.335 396.948 514.148 336.162 515.623C275.375 517.099 227.616 480.233 217.485 434.52C207.353 388.807 178.408 366.687 127.753 357.839C77.0984 348.992 -14.0798 279.684 1.8408 189.732C1.8408 189.732 5.56826 94.0219 93.7452 30.4746C153.084 -12.2894 234.852 2.45659 234.852 2.45659Z" fill="#2C2E36"/>
</g>
<path d="M478.781 244.186H423.224L441.145 169.318H496.703L478.781 244.186Z" stroke="white" stroke-width="0.893939" stroke-miterlimit="10"/>
<path d="M274.772 263.358H453.093L456.211 246.315H277.891" fill="#E2E7FF"/>
<path d="M294.485 155.623L277.89 246.315H456.21L472.805 155.623H294.485Z" fill="#243FA7"/>
<path d="M414.262 304.14L432.001 586.105C432.103 587.733 433.43 589 435.03 589C436.742 589 438.116 587.558 438.064 585.815L429.794 304.14H414.262Z" fill="#E2E7FF"/>
<path d="M448.91 304.139L466.651 586.105C466.753 587.733 468.078 588.999 469.679 588.999C471.391 588.999 472.764 587.557 472.713 585.815L464.442 304.139H448.91Z" fill="#E2E7FF"/>
<path d="M289.315 304.139L271.574 586.105C271.472 587.733 270.147 589 268.546 589C266.834 589 265.46 587.557 265.512 585.815L273.782 304.139H289.315Z" fill="#E2E7FF"/>
<path d="M254.666 304.139L236.926 586.105C236.824 587.733 235.498 588.999 233.897 588.999C232.185 588.999 230.813 587.557 230.865 585.815L239.135 304.139H254.666Z" fill="#E2E7FF"/>
<path d="M466.832 309.009H238.031V293.183H466.832V309.009Z" fill="#E2E7FF"/>
<path d="M513.728 298.662H200.694C197.23 298.662 194.422 295.799 194.422 292.27C194.422 288.741 197.23 285.879 200.694 285.879H513.728C517.191 285.879 520 288.741 520 292.27C520 295.799 517.191 298.662 513.728 298.662Z" fill="#A9A7E7"/>
<path d="M474.601 237.49H419.043L436.964 162.623H492.522L474.601 237.49Z" fill="#E2E7FF"/>
<path d="M442.34 173.275H480.572" stroke="#A9A7E7" stroke-width="0.893939" stroke-miterlimit="10"/>
<path d="M440.1 186.513H478.333" stroke="#A9A7E7" stroke-width="0.893939" stroke-miterlimit="10"/>
<path d="M440.997 179.666H458.919" stroke="#A9A7E7" stroke-width="0.893939" stroke-miterlimit="10"/>
<path d="M435.171 198.84H473.403" stroke="#A9A7E7" stroke-width="0.893939" stroke-miterlimit="10"/>
<path d="M432.931 212.078H457.126" stroke="#A9A7E7" stroke-width="0.893939" stroke-miterlimit="10"/>
<path d="M433.827 205.23H451.749" stroke="#A9A7E7" stroke-width="0.893939" stroke-miterlimit="10"/>
<path d="M491.626 286.793H409.41C407.307 286.793 405.603 285.055 405.603 282.912V275.152C405.603 273.009 407.307 271.271 409.41 271.271H491.626V286.793Z" fill="#00A3FF"/>
<path d="M491.625 283.14H416.578C414.227 283.14 412.321 281.198 412.321 278.803C412.321 276.408 414.227 274.466 416.578 274.466H491.625V283.14Z" fill="white"/>
<path d="M497.896 271.271H415.681C413.577 271.271 411.873 269.534 411.873 267.391V259.631C411.873 257.488 413.577 255.75 415.681 255.75H497.896V271.271Z" fill="#E86D5E"/>
<path d="M497.896 267.619H422.849C420.499 267.619 418.593 265.677 418.593 263.282C418.593 260.887 420.499 258.945 422.849 258.945H497.896V267.619Z" fill="white"/>
<path d="M172.398 162.815H95.0938V49.9908H172.398V162.815Z" fill="white"/>
<path d="M107.631 69.6823H147.327" stroke="#A9A7E7" stroke-width="0.893939" stroke-miterlimit="10"/>
<path d="M107.631 80.8585H147.327" stroke="#A9A7E7" stroke-width="0.893939" stroke-miterlimit="10"/>
<path d="M107.631 92.0347H147.327" stroke="#A9A7E7" stroke-width="0.893939" stroke-miterlimit="10"/>
<path d="M107.631 103.209H147.327" stroke="#A9A7E7" stroke-width="0.893939" stroke-miterlimit="10"/>
<path d="M107.631 114.385H147.327" stroke="#A9A7E7" stroke-width="0.893939" stroke-miterlimit="10"/>
<path d="M155.688 68.7508L158.038 71.1458L163.719 65.3591" stroke="#00A3FF" stroke-width="1.04178" stroke-miterlimit="10"/>
<path d="M155.688 79.9266L158.038 82.3216L163.719 76.5334" stroke="#00A3FF" stroke-width="1.04178" stroke-miterlimit="10"/>
<path d="M155.688 91.1029L158.038 93.4979L163.719 87.7097" stroke="#00A3FF" stroke-width="1.04178" stroke-miterlimit="10"/>
<path d="M155.688 102.279L158.038 104.674L163.719 98.886" stroke="#00A3FF" stroke-width="1.04178" stroke-miterlimit="10"/>
<path d="M155.688 113.454L158.038 115.849L163.719 110.062" stroke="#00A3FF" stroke-width="1.04178" stroke-miterlimit="10"/>
<path d="M398.486 179.982H257.99C251.587 179.982 246.396 174.692 246.396 168.168V83.3893C246.396 76.8658 251.587 71.5759 257.99 71.5759H398.486C404.889 71.5759 410.08 76.8658 410.08 83.3893V168.168C410.08 174.692 404.889 179.982 398.486 179.982Z" fill="#E2E7FF"/>
<path d="M265.033 142.732C265.033 142.732 263.326 137.542 262.862 136.33C262.398 135.117 257.027 131.102 256.208 132.544C255.388 133.986 258.088 139.62 258.088 139.62C258.088 139.62 257.202 143.043 258.711 144.122C260.22 145.2 263.05 146.871 263.05 146.871L265.033 142.732Z" fill="#F9B08D"/>
<path d="M304.803 180.297C315.42 170.885 327.554 155.808 330.271 150.944C334.179 143.948 335.03 136.487 335.03 136.487C335.704 132.867 328.002 126.701 318.935 129.878C309.867 133.056 304.631 145.189 304.631 145.189C304.631 145.189 295.051 165.329 292.352 164.724C289.653 164.118 268.375 140.709 266.449 141.053C263.374 142.692 259.269 148.092 259.269 148.092C259.269 148.092 270.541 168.638 280.855 180.297H304.803Z" fill="#6D77D2"/>
<path d="M373.349 180.297C374.149 162.303 374.683 142.76 373.641 136.122C369.14 126.305 341.823 124.578 341.823 124.578C341.823 124.578 323.377 127.839 316.044 131.159C311.399 134.604 311.276 137.345 311.092 141.454C311.092 141.454 308.116 156.115 308.59 180.297H373.349Z" fill="#6D77D2"/>
<path d="M332.645 116.181L333.35 130.554C333.439 132.352 334.742 133.856 336.488 134.132C339.222 134.564 343.378 134.531 347.006 131.636C348.11 130.756 348.583 129.285 348.288 127.888C346.868 121.181 344.335 107.43 344.335 107.43L332.645 116.181Z" fill="#F9A47C"/>
<path d="M345.428 115.433C348.317 111.048 351.324 101.293 344.361 95.5951C337.476 89.961 329.837 91.7943 325.493 100.646C325.444 100.746 325.271 101.391 325.223 101.492C325.223 101.492 325.094 105.012 325.022 107.546C324.949 110.08 326.876 121.356 327.387 123.07C327.606 123.74 330.677 123.89 331.335 123.816C331.993 123.742 337.382 120.809 340.014 119.245C342.647 117.68 344.699 116.54 345.428 115.433Z" fill="#F9B08D"/>
<path d="M325.344 100.947C325.344 100.947 321.878 94.3192 326.286 90.4142C330.693 86.5091 337.973 87.2913 341.615 91.1964C345.255 95.1015 345.64 95.6859 345.64 95.6859C345.64 95.6859 348.514 96.2733 350.239 99.2013C351.964 102.131 348.323 109.55 346.598 111.697C344.872 113.845 345.369 113.9 345.369 113.9L344.297 112.868C344.297 112.868 343.149 107.206 343.34 103.887C343.149 102.129 340.466 99.5909 336.825 99.005C333.185 98.4191 332.835 101.717 325.344 100.947Z" fill="#243FA7"/>
<path d="M345.48 109.485C345.48 109.485 346.071 107.092 348.512 107.768C350.964 108.531 348.515 115.699 346.009 115.202C343.577 114.61 345.48 109.485 345.48 109.485Z" fill="#F9B08D"/>
<path d="M347.685 125.169C347.685 125.169 344.364 130.635 340.02 132.197C339.253 132.458 338.486 134.149 338.486 134.149L336.953 131.807C336.953 131.807 333.121 129.855 333.121 126.471L332.609 126.991L332.099 131.416C332.099 131.416 331.971 135.582 332.482 137.144L336.187 134.67C336.187 134.67 339.125 135.581 341.041 134.8C341.041 134.8 342.831 137.926 343.725 138.186C344.619 138.445 349.473 132.067 349.856 129.855C350.368 127.642 349.473 125.429 349.473 125.429L347.685 125.169Z" fill="#D1DBE0"/>
<path d="M379.053 180.297H399.509C395.497 166.388 384.361 145.999 380.516 141.179C375.533 134.931 369.018 131.416 369.018 131.416C365.952 129.463 357.522 134.54 357.138 144.303C356.754 154.066 365.953 163.437 365.953 163.437C365.953 163.437 376.777 175.317 379.053 180.297Z" fill="#6D77D2"/>
<path d="M265.252 139.241C265.252 139.241 263.409 134.651 262.906 133.542C262.404 132.434 256.513 126.624 255.598 127.177C254.684 127.731 257.619 133.186 257.619 133.186C257.619 133.186 256.616 135.09 258.271 136.688C259.926 138.285 263.035 141.036 263.035 141.036L265.252 139.241Z" fill="#F9B08D"/>
<path d="M303.485 169.548C314.611 168.158 327.363 164.136 330.23 162.397C334.356 159.896 335.305 156.007 335.305 156.007C336.038 154.217 328.079 147.908 318.619 146.357C309.159 144.807 303.608 149.712 303.608 149.712C303.608 149.712 293.469 157.527 290.667 156.192C287.864 154.857 265.931 133.835 263.925 133.32C260.712 133.11 256.395 134.64 256.395 134.64C256.395 134.64 267.945 150.363 278.573 160.728L303.485 169.548Z" fill="#6D77D2"/>
<path d="M347.956 118.382C351.117 117.379 354.44 113.149 346.92 105.577C339.483 98.0885 331.183 94.7451 326.415 97.6391C326.361 97.6716 326.169 97.9661 326.117 98.0005C326.117 98.0005 325.955 100.086 325.861 101.6C325.766 103.113 327.788 111.164 328.332 112.516C328.566 113.056 331.897 114.944 332.612 115.284C333.326 115.623 339.192 116.975 342.058 117.555C344.923 118.134 347.158 118.635 347.956 118.382Z" fill="#F9B08D"/>
<path d="M326.984 96.3423C326.984 96.3423 323.361 90.7078 328.065 90.2749C332.768 89.8419 340.479 93.582 344.308 97.6175C348.136 101.652 348.539 102.185 348.539 102.185C348.539 102.185 351.581 103.833 353.387 106.409C355.192 108.986 351.274 111.926 349.428 112.477C347.582 113.028 348.108 113.284 348.108 113.284L346.98 112.168C346.98 112.168 345.807 108.167 346.036 106.208C345.848 105.039 343.024 102.275 339.169 100.284C335.315 98.294 334.918 100.169 326.984 96.3423Z" fill="#243FA7"/>
<path d="M346.902 110.662C346.902 110.662 347.571 109.321 350.251 111.143C352.943 113.031 350.195 116.672 347.441 114.939C344.77 113.181 346.902 110.662 346.902 110.662Z" fill="#F9B08D"/>
<path d="M348.159 131.489C348.159 131.489 344.647 133.347 340.101 132.577C339.299 132.434 338.483 133.108 338.483 133.108L336.904 131.18C336.904 131.18 332.921 128.594 332.95 126.656L332.412 126.759L331.842 129.097C331.842 129.097 331.673 131.433 332.193 132.523L336.08 132.526C336.08 132.526 339.138 134.172 341.144 134.459C341.144 134.459 342.986 136.935 343.917 137.426C344.847 137.917 349.966 136.123 350.385 135.004C350.937 133.933 350.022 132.322 350.022 132.322L348.159 131.489Z" fill="#D1DBE0"/>
<path d="M278.217 137.824C278.217 137.824 277.373 132.723 277.101 131.491C276.829 130.26 271.502 123.824 270.244 124.446C268.985 125.069 270.878 131.127 270.878 131.127C270.878 131.127 269.112 133.254 270.619 135.023C272.126 136.792 275.03 139.837 275.03 139.837L278.217 137.824Z" fill="#F9B08D"/>
<path d="M305.383 181.814C318.27 180.961 333.858 177.007 337.645 175.095C343.093 172.346 345.464 167.653 345.464 167.653C346.885 165.515 340.129 157.174 330.094 154.551C320.058 151.927 312.209 157.514 312.209 157.514C312.209 157.514 298.258 166.315 295.58 164.465C292.903 162.614 275.51 135.175 273.446 134.391C269.93 133.888 264.596 135.432 264.596 135.432C264.596 135.432 272.186 155.584 280.553 169.1L305.383 181.814Z" fill="#6D77D2"/>
<path d="M398.486 71.5759H363.03C362.582 74.2896 362.338 77.0711 362.338 79.9146C362.338 107.081 383.593 129.175 410.08 129.913V83.3893C410.08 76.8642 404.889 71.5759 398.486 71.5759Z" fill="#D2CAF6"/>
<path d="M158.978 279.591C158.964 279.705 158.945 279.828 158.93 279.945H226.023C224.347 267.604 222.184 257.058 221.307 254.376C221.307 254.376 226.195 254.998 232.306 239.434C238.416 223.869 224.667 208.303 224.667 208.303C224.667 208.303 221.612 197.097 216.112 193.361C216.112 193.361 214.279 187.757 201.447 184.645C188.615 181.533 169.062 180.287 155.618 188.381C145.23 195.229 147.062 221.379 153.172 236.944C159.283 252.508 159.894 271.808 158.978 279.591Z" fill="#FF8D68"/>
<path d="M169.98 161.453C169.98 161.453 174.563 176.862 166.313 187.602C166.313 187.602 180.979 196.942 196.102 188.537L198.393 187.135C198.393 187.135 199.309 177.797 194.269 165.189C194.269 165.189 185.563 152.582 169.98 161.453Z" fill="#FF8D68"/>
<path d="M211.71 413.194C225.737 414.29 226.146 421.24 225.947 428.114C225.749 434.988 212.709 484.091 193.227 518.698C193.227 518.698 189.421 518.319 178.867 513.886L180.497 505.308C180.497 505.308 184.942 485.316 186.659 474.709C188.375 464.102 192.416 445.678 195.48 437.226C198.907 427.769 200.577 419.509 205.111 416.303C209.644 413.098 211.71 413.194 211.71 413.194Z" fill="#FF8D68"/>
<path d="M273.285 372.884C287.179 375.152 286.575 381.93 285.375 388.58C284.175 395.231 265.809 448.082 241.245 479.978C241.245 479.978 237.854 478.886 227.926 473.68L231.052 459.989C231.052 459.989 238.418 440.978 241.684 430.836C244.951 420.694 251.686 403.166 255.986 395.231C260.799 386.352 261.211 378.054 266.22 375.334C271.23 372.613 273.285 372.884 273.285 372.884Z" fill="#FF8D68"/>
<path d="M242.02 480.818C242.02 480.818 239.016 490.951 240.226 494.978C241.436 499.005 245.065 508.742 246.876 510.39C248.686 512.039 251.707 517.715 249.297 519.616C246.888 521.516 228.182 510.924 224.559 506.456C220.936 501.987 216.113 502.861 214.901 497.078C213.689 491.294 220.319 487.97 223.331 484.863C226.342 481.756 228.746 474.585 228.746 474.585C228.746 474.585 240.81 477.376 242.02 480.818Z" fill="#FF8D68"/>
<path d="M216.804 490.959C216.804 490.959 219.805 486.751 225.221 489.889C230.636 493.028 231.246 501.055 234.855 503.147C238.466 505.239 241.469 502.183 243.874 502.618C246.279 503.053 251.705 515.984 249.304 519.579C246.903 523.175 230.055 513.221 225.242 509.47C220.427 505.72 205.388 497.964 216.804 490.959Z" fill="#201360"/>
<path d="M193.527 517.175C193.527 517.175 190.539 527.523 191.734 531.784C192.928 536.045 196.513 546.393 198.305 548.218C200.097 550.044 203.084 556.131 200.694 557.957C198.305 559.782 179.785 547.61 176.201 542.74C172.618 537.87 167.838 538.48 166.643 532.393C165.449 526.305 172.02 523.261 175.007 520.218C177.993 517.175 180.384 509.871 180.384 509.871C180.384 509.871 192.333 513.523 193.527 517.175Z" fill="#FF8D68"/>
<path d="M168.436 525.697C168.436 525.697 171.424 521.437 176.801 525.088C182.178 528.741 182.775 537.263 186.359 539.697C189.944 542.131 192.931 539.088 195.32 539.697C197.709 540.305 203.084 554.305 200.695 557.957C198.306 561.608 181.581 550.044 176.801 545.782C172.021 541.521 157.086 532.393 168.436 525.697Z" fill="#201360"/>
<path d="M218.537 228.676C218.537 228.676 235.215 248.131 248.505 254.127C261.795 260.124 290.214 213.521 295.14 213.556C298.199 211.215 297.67 203.535 291.736 202.608C285.802 201.68 262.097 226.367 255.781 227.752C251.863 228.611 238.193 214.344 238.193 214.344L218.537 228.676Z" fill="#FF8D68"/>
<path d="M223.919 224.753L219.283 229.526C221.748 232.306 229.99 241.332 238.782 248.049C246.274 239.644 247.31 229.41 246.946 222.607C242.485 218.82 238.195 214.344 238.195 214.344L223.919 224.753Z" fill="#FA6157"/>
<path d="M288.344 204.752C288.344 204.752 294.797 197.896 298.432 194.761C302.068 191.626 307.452 191.993 307.452 191.993C307.452 191.993 316.003 192.386 317.399 192.138C318.728 192.342 318.568 196.472 314.005 196.694C309.441 196.916 307.335 198.9 307.335 198.9L306.181 200.57C306.181 200.57 311.209 200.265 313.868 200.675C316.527 201.084 324.747 200.653 326.653 200.024C328.559 199.394 331.661 199.87 331.836 201.744C332.011 203.618 328.199 204.879 328.199 204.879C328.199 204.879 320.969 213.922 316.271 215.047C311.573 216.172 296.5 213.213 295.142 213.556C293.785 213.898 289.071 209.019 288.344 204.752Z" fill="#FF8D68"/>
<path d="M331.836 201.744C331.836 201.744 331.16 204.256 327.062 204.395C322.963 204.534 312.816 205.745 312.816 205.745" stroke="#E66657" stroke-width="0.892954" stroke-miterlimit="10"/>
<path d="M328.199 204.879C328.199 204.879 326.06 207.089 325.261 207.89C324.462 208.69 314.449 208.997 314.449 208.997" stroke="#E66657" stroke-width="0.892954" stroke-miterlimit="10"/>
<path d="M325.261 207.89C325.261 207.89 322.7 211.42 321.015 212.085C319.331 212.749 313.095 212.02 313.095 212.02" stroke="#E66657" stroke-width="0.892954" stroke-miterlimit="10"/>
<path d="M212.793 243.303C212.793 243.303 232.3 250.174 246.924 248.96C261.547 247.746 287.058 203.33 292.267 201.34C295.272 198.442 293.968 193.254 287.608 195.028C281.248 196.802 258.595 223.867 252.055 227.424C247.999 229.631 232.172 225.18 232.172 225.18L212.793 243.303Z" fill="#FF8D68"/>
<path d="M219.827 234.63L215.111 240.511C218.153 241.538 228.296 244.76 238.823 245.923C246.374 235.881 246.507 227.407 245.416 222.263C240.037 221.376 234.779 219.873 234.779 219.873L219.827 234.63Z" fill="#FA6157"/>
<path d="M277.177 200.088C277.177 200.088 283.229 192.935 286.709 189.398C290.189 185.862 295.829 184.021 295.829 184.021C295.829 184.021 304.766 180.969 306.195 180.259C307.598 179.881 307.832 182.744 303.104 184.665C298.376 186.587 296.376 188.75 296.376 188.75L295.336 190.33C295.336 190.33 300.541 188.172 303.348 187.417C306.155 186.663 314.668 183.181 316.591 182.014C318.513 180.848 321.788 179.966 322.152 181.169C322.515 182.372 318.67 184.706 318.67 184.706C318.67 184.706 312.022 193.644 307.241 196.23C302.46 198.816 286.486 202.659 285.106 203.419C283.726 204.178 278.348 202.699 277.177 200.088Z" fill="#FF8D68"/>
<path d="M320.948 184.062C320.948 184.062 320.529 185.759 316.448 187.11C312.365 188.461 302.348 192.32 302.348 192.32" stroke="#E66657" stroke-width="0.892954" stroke-miterlimit="10"/>
<path d="M318.12 187.951C318.12 187.951 316.178 190.037 315.45 190.8C314.722 191.564 304.631 195.113 304.631 195.113" stroke="#E66657" stroke-width="0.892954" stroke-miterlimit="10"/>
<path d="M315.972 191.557C315.972 191.557 313.707 194.712 312.055 195.731C310.403 196.749 303.974 198.485 303.974 198.485" stroke="#E66657" stroke-width="0.892954" stroke-miterlimit="10"/>
<path d="M229.67 294.401C229.67 294.401 230.865 301.097 230.267 311.14C230.137 313.331 284.629 358.312 293.589 374.138C302.55 389.963 294.784 397.875 291.798 413.7C288.811 429.526 284.031 446.57 272.084 447.179C260.137 447.787 256.85 461.177 237.137 459.352C217.422 457.526 221.904 487.959 200.397 492.22C178.891 496.482 172.32 468.787 173.515 454.787C174.71 440.787 183.968 419.787 176.202 400.919C168.436 382.051 165.747 375.355 156.189 361.355C146.631 347.355 146.034 333.965 147.826 324.835C149.618 315.705 155.592 300.488 155.592 300.488L158.58 291.967L229.67 294.401Z" fill="#201360"/>
<path d="M223.696 328.791C210.255 318.748 182.476 318.748 163.658 322.399C144.84 326.051 155.592 334.269 155.592 334.269C155.592 334.269 153.418 342.409 152.101 354.331C153.236 356.645 154.574 358.99 156.19 361.355C165.748 375.355 168.436 382.051 176.202 400.919C181.077 412.761 179.245 425.44 176.909 436.703C192.836 449.477 209.927 444.37 225.488 431.962C246.098 415.528 224.591 410.961 231.76 388.136C238.929 365.311 262.227 367.137 253.267 348.877C244.306 330.617 237.137 338.835 223.696 328.791Z" fill="#201337"/>
<path d="M163.062 184.84C163.062 184.84 159.179 200.055 177.997 200.969C196.815 201.882 200.399 184.535 207.567 185.448C214.736 186.362 220.113 188.186 221.905 191.839C223.697 195.49 241.618 212.838 244.307 218.317C246.995 223.795 238.93 248.446 230.866 253.011C222.802 257.576 236.241 288.618 233.553 294.097C230.864 299.576 224.592 300.488 224.592 300.488C224.592 300.488 156.492 303.227 152.906 293.183C150.218 284.967 153.802 284.054 153.802 278.575C153.802 273.096 152.905 251.184 146.633 231.098C140.361 211.012 144.841 198.231 149.321 192.752C153.802 187.274 158.581 184.84 163.062 184.84Z" fill="#FFC249"/>
<path d="M230.865 253.011C238.929 248.446 246.994 223.795 244.306 218.317C243.667 217.015 242.154 215.032 240.215 212.734C242.025 218.839 243.923 231.454 232.307 239.434C216.527 250.272 209.358 259.402 217.422 272.184C225.488 284.966 222.799 296.835 193.229 295.009C170.75 293.622 161.734 286.435 152.799 283.466C151.988 285.784 151.232 288.069 152.905 293.184C156.491 303.227 224.591 300.488 224.591 300.488C224.591 300.488 230.863 299.576 233.552 294.097C236.24 288.619 222.801 257.576 230.865 253.011Z" fill="#FFA70C"/>
<path d="M200.399 220.142C200.399 220.142 208.166 236.578 226.684 248.142" stroke="#FF820C" stroke-width="1.19159" stroke-miterlimit="10"/>
<path d="M160.522 287.249C160.522 287.249 187.852 300.944 215.183 292.27" stroke="#FF820C" stroke-width="1.19159" stroke-miterlimit="10"/>
<path d="M202.637 207.361C202.637 207.361 201.742 200.969 209.358 193.664" stroke="#FF820C" stroke-width="1.19159" stroke-miterlimit="10"/>
<path d="M202.181 115.777C202.181 115.777 212.554 121.427 218.112 134.937C223.671 148.447 218.989 171.221 214.962 172.65C210.936 174.079 199.005 168.688 182.532 158.824C165.127 148.404 159.601 133.317 156.73 123.643C151.233 105.12 171.769 95.4828 202.181 115.777Z" fill="#FF8D68"/>
<path d="M205.051 150.599C205.051 150.599 203.634 145.056 197.844 145.197C192.054 145.338 198.47 159.692 203.175 160.687C207.88 161.681 206.034 152.895 205.051 150.599Z" fill="#FA6157"/>
<path d="M197.377 118.839C197.377 118.839 206.888 122.396 215.468 134.228C224.048 146.059 216.206 155.804 210.623 158.786C205.04 161.768 206.268 164.772 203.025 170.908C199.783 177.044 191.571 176.001 197.3 191.33C203.03 206.659 201.641 207.153 199.809 222.695C197.976 238.237 200.281 253.3 195.392 256.035C190.503 258.77 183.331 257.355 167.094 248.999C150.857 240.642 148.596 247.402 140.599 239.086C132.601 230.77 130.542 230.759 130.853 220.226C131.164 209.692 133.511 199.92 132.848 187.501C132.184 175.083 137.456 170.968 136.859 156.292C136.262 141.614 138.967 119.807 145.347 113.066C151.727 106.325 170.72 102.78 197.377 118.839Z" fill="#41100F"/>
<path d="M214.282 155.013C214.166 158.877 211.168 160.935 207.583 159.608C204 158.282 201.188 154.074 201.303 150.21C201.418 146.346 204.418 144.289 208.001 145.615C211.586 146.941 214.397 151.149 214.282 155.013Z" fill="#201360"/>
<path d="M207.617 154.029C207.617 154.029 224.232 173.369 222.74 177.347C221.249 181.324 213.134 176.766 213.134 176.766" stroke="#201360" stroke-width="1.19159" stroke-miterlimit="10"/>
<path d="M214.702 180.629C214.66 181.923 213.118 182.449 211.255 181.804C209.392 181.158 207.916 179.586 207.958 178.292C207.999 176.997 209.541 176.471 211.404 177.117C213.267 177.763 214.743 179.334 214.702 180.629Z" fill="#201360"/>
<path d="M166.346 309.618C166.346 309.618 185.164 314.183 221.007 313.269" stroke="#14113E" stroke-width="1.19159" stroke-miterlimit="10"/>
<path d="M192.633 574.391H181.881V361.355H192.633V574.391Z" fill="#E2E7FF"/>
<path d="M192.633 376.267H181.881V361.355H192.633V376.267Z" fill="#CBC9F6"/>
<path d="M231.764 365.311H149.324V352.53H231.764V365.311Z" fill="#E2E7FF"/>
<path d="M224.894 341.573C220.867 333.365 212.634 328.183 203.629 328.183H146.912C142.305 328.183 138.571 331.987 138.571 336.682V341.443C138.571 350.087 145.448 357.095 153.932 357.095H236.244C240.203 357.095 243.413 353.824 243.413 349.791C243.413 345.757 240.203 342.486 236.244 342.486H226.344C225.73 342.486 225.168 342.133 224.894 341.573Z" fill="#A9A7E7"/>
<path d="M153.93 357.095H236.242C240.201 357.095 243.411 353.824 243.411 349.791C243.411 349.582 243.368 349.386 243.352 349.182H140.59C143.234 353.904 148.212 357.095 153.93 357.095Z" fill="#8E95E6"/>
<path d="M192.42 573.174H188.363H187.348H183.292L141.707 587.782H234.004L192.42 573.174Z" fill="#E2E7FF"/>
<path d="M216.977 547.001H158.732C156.504 547.001 154.699 545.162 154.699 542.892C154.699 540.622 156.504 538.783 158.732 538.783H216.977C219.204 538.783 221.009 540.622 221.009 542.892C221.009 545.162 219.204 547.001 216.977 547.001Z" fill="#E2E7FF"/>
<path d="M216.977 499.524H158.732C156.504 499.524 154.699 497.685 154.699 495.415C154.699 493.146 156.504 491.307 158.732 491.307H216.977C219.204 491.307 221.009 493.146 221.009 495.415C221.009 497.685 219.204 499.524 216.977 499.524Z" fill="#E2E7FF"/>
<path d="M90.6884 451.797C90.6884 451.797 74.5082 397.967 93.0052 350.769C101.453 338.082 108.646 338.838 108.646 338.838C108.646 338.838 115.892 360.778 111.349 386.093C106.805 411.409 109.135 456.451 109.135 456.451L90.6884 451.797Z" fill="#61A27D"/>
<path d="M102.375 442.549C102.375 442.549 102.503 418.718 71.2942 387.786C40.0856 356.854 33.5957 354.765 33.5957 354.765C33.5957 354.765 59.62 362.146 77.2604 376.775C94.9009 391.403 99.9069 417.881 100.967 422.202C102.027 426.522 108.866 444.638 108.866 444.638L102.375 442.549Z" fill="#578B71"/>
<path d="M108.489 447.164C108.489 447.164 112.5 423.667 146.882 395.56C181.265 367.453 187.663 365.889 187.663 365.889C187.663 365.889 162.181 371.181 143.241 384.255C124.3 397.329 115.058 423.043 113.323 427.219C111.589 431.396 102.09 448.729 102.09 448.729L108.489 447.164Z" fill="#578B71"/>
<path d="M114.802 441.846C114.802 441.846 111.86 337.855 88.4966 300.951C90.9447 298.755 123.733 327.853 126.29 355.467C128.846 383.081 119.305 417.001 119.985 428.093C120.667 439.185 123.055 450.046 123.055 450.046" fill="#7CC97D"/>
<path d="M88.208 454.907C88.208 454.907 97.2567 399.724 133.485 367.876C137.136 373.027 100.452 441.296 107.484 462.685C114.515 484.074 88.208 454.907 88.208 454.907Z" fill="#7CC97D"/>
<path d="M128.405 441H105.791H105.675H83.0602C80.7867 445.878 76.2115 457.599 77.117 471.433C78.3116 489.693 93.8439 588.298 93.8439 588.298H105.675H105.791H117.623C117.623 588.298 133.155 489.693 134.349 471.433C135.255 457.599 130.678 445.878 128.405 441Z" fill="#F7D83F"/>
<path d="M437.704 139.81C431.793 139.81 427 134.927 427 128.904C427 122.882 431.793 118 437.704 118C443.614 118 448.406 122.882 448.406 128.904C448.406 134.927 443.614 139.81 437.704 139.81Z" fill="#40BFE0"/>
<path d="M451.302 105.712C448.663 105.712 446.522 103.533 446.522 100.844C446.522 98.1542 448.663 95.9736 451.302 95.9736C453.942 95.9736 456.08 98.1542 456.08 100.844C456.08 103.533 453.942 105.712 451.302 105.712Z" fill="#D2CAF6"/>
<path d="M298.37 75.2786C298.37 55.7819 282.857 39.9744 263.722 39.9744C244.586 39.9744 229.073 55.7819 229.073 75.2786C229.073 94.7753 244.586 110.581 263.722 110.581C269.339 110.581 274.627 109.187 279.319 106.77C281.524 109.764 286.135 113.678 295.383 114.233L289.581 98.7166C295.031 92.4799 298.37 84.2862 298.37 75.2786Z" fill="#F6BE00"/>
<path d="M249.68 75.8873L260.434 86.8429L281.491 65.3877" stroke="white" stroke-width="4.76735" stroke-linecap="round" stroke-linejoin="round"/>
</svg>
