<svg width="105" height="105" viewBox="0 0 105 105" fill="none" xmlns="http://www.w3.org/2000/svg">
<path d="M91.875 19.6875V85.3125H13.125V19.6875H91.875ZM91.875 13.125H13.125C11.3845 13.125 9.71532 13.8164 8.48461 15.0471C7.2539 16.2778 6.5625 17.947 6.5625 19.6875V85.3125C6.5625 87.053 7.2539 88.7222 8.48461 89.9529C9.71532 91.1836 11.3845 91.875 13.125 91.875H91.875C93.6155 91.875 95.2847 91.1836 96.5154 89.9529C97.7461 88.7222 98.4375 87.053 98.4375 85.3125V19.6875C98.4375 17.947 97.7461 16.2778 96.5154 15.0471C95.2847 13.8164 93.6155 13.125 91.875 13.125Z" fill="#F6BE00"/>
<path d="M19.6875 32.8125H42.6562V39.375H19.6875V32.8125Z" fill="#F6BE00"/>
<path d="M19.6875 45.9375H32.8125V52.5H19.6875V45.9375Z" fill="#F6BE00"/>
<path d="M75.4688 59.0625H55.7812C53.1705 59.0625 50.6667 60.0996 48.8207 61.9457C46.9746 63.7917 45.9375 66.2955 45.9375 68.9062V75.4688H52.5V68.9062C52.5 68.036 52.8457 67.2014 53.4611 66.5861C54.0764 65.9707 54.911 65.625 55.7812 65.625H75.4688C76.339 65.625 77.1736 65.9707 77.7889 66.5861C78.4043 67.2014 78.75 68.036 78.75 68.9062V75.4688H85.3125V68.9062C85.3125 66.2955 84.2754 63.7917 82.4293 61.9457C80.5833 60.0996 78.0795 59.0625 75.4688 59.0625Z" fill="#F6BE00"/>
<path d="M65.625 55.7813C68.2209 55.7813 70.7585 55.0115 72.9169 53.5693C75.0753 52.1271 76.7575 50.0773 77.7509 47.679C78.7443 45.2807 79.0042 42.6417 78.4978 40.0957C77.9914 37.5497 76.7413 35.211 74.9058 33.3755C73.0702 31.5399 70.7316 30.2899 68.1856 29.7834C65.6396 29.277 63.0006 29.5369 60.6023 30.5303C58.204 31.5237 56.1542 33.206 54.712 35.3644C53.2698 37.5228 52.5 40.0604 52.5 42.6563C52.5 46.1372 53.8828 49.4756 56.3442 51.937C58.8056 54.3985 62.144 55.7813 65.625 55.7813ZM65.625 36.0938C66.9229 36.0938 68.1917 36.4786 69.2709 37.1997C70.3501 37.9208 71.1913 38.9458 71.688 40.1449C72.1847 41.344 72.3146 42.6635 72.0614 43.9365C71.8082 45.2095 71.1832 46.3789 70.2654 47.2966C69.3476 48.2144 68.1783 48.8394 66.9053 49.0927C65.6323 49.3459 64.3128 49.2159 63.1136 48.7192C61.9145 48.2225 60.8896 47.3814 60.1685 46.3022C59.4474 45.223 59.0625 43.9542 59.0625 42.6563C59.0625 40.9158 59.7539 39.2466 60.9846 38.0159C62.2153 36.7852 63.8845 36.0938 65.625 36.0938Z" fill="#F6BE00"/>
</svg>
