<svg width="94" height="94" viewBox="0 0 94 94" fill="none" xmlns="http://www.w3.org/2000/svg">
<path fill-rule="evenodd" clip-rule="evenodd" d="M64 30C64 39.3887 56.3887 47 47 47C37.6112 47 30 39.3887 30 30C30 20.6112 37.6112 13 47 13C56.3887 13 64 20.6112 64 30ZM55.5 30C55.5 34.6945 51.6945 38.5 47 38.5C42.3055 38.5 38.5 34.6945 38.5 30C38.5 25.3056 42.3055 21.5 47 21.5C51.6945 21.5 55.5 25.3056 55.5 30Z" fill="#F6BE00"/>
<path fill-rule="evenodd" clip-rule="evenodd" d="M47 0C21.0426 0 0 21.0426 0 47C0 72.9573 21.0426 94 47 94C72.9573 94 94 72.9573 94 47C94 21.0426 72.9573 0 47 0ZM8.54545 47C8.54545 55.9309 11.59 64.1507 16.6977 70.6782C23.7241 61.4799 34.8068 55.5455 47.2756 55.5455C59.5823 55.5455 70.5393 61.3269 77.5778 70.3218C82.5192 63.8529 85.4546 55.7693 85.4546 47C85.4546 25.7622 68.238 8.54545 47 8.54545C25.7622 8.54545 8.54545 25.7622 8.54545 47ZM47 85.4546C37.8127 85.4546 29.3778 82.2325 22.7637 76.857C28.1723 69.1379 37.1345 64.0909 47.2756 64.0909C57.2904 64.0909 66.1559 69.0135 71.5844 76.5711C64.9194 82.118 56.3492 85.4546 47 85.4546Z" fill="#F6BE00"/>
</svg>
