<svg width="61" height="80" viewBox="0 0 61 80" fill="none" xmlns="http://www.w3.org/2000/svg">
<path d="M15.25 4V60H57.1875V6C57.1875 4.89543 56.334 4 55.2812 4H15.25ZM11.4375 4H9.53125C6.37287 4 3.8125 6.68629 3.8125 10V61.9993C5.40548 60.7439 7.38556 60 9.53125 60H11.4375V4ZM0.576504 73.433C0.220874 73.0697 0 72.5619 0 72V10C0 4.47715 4.26729 0 9.53125 0H55.2812C58.4396 0 61 2.68629 61 6V74C61 77.3137 58.4396 80 55.2812 80H9.53125C5.41688 80 1.91139 77.2648 0.576504 73.433ZM57.1875 64H9.53125C6.37287 64 3.8125 66.6863 3.8125 70C3.8125 73.3137 6.37287 76 9.53125 76H55.2812C56.334 76 57.1875 75.1046 57.1875 74V64ZM24.7812 32C23.7285 32 22.875 31.1046 22.875 30C22.875 28.8954 23.7285 28 24.7812 28H47.6562C48.709 28 49.5625 28.8954 49.5625 30C49.5625 31.1046 48.709 32 47.6562 32H24.7812ZM24.7812 24C23.7285 24 22.875 23.1046 22.875 22C22.875 20.8954 23.7285 20 24.7812 20H40.0312C41.084 20 41.9375 20.8954 41.9375 22C41.9375 23.1046 41.084 24 40.0312 24H24.7812Z" fill="#F6BE00"/>
</svg>
