<svg width="973" height="736" viewBox="0 0 973 736" fill="none" xmlns="http://www.w3.org/2000/svg">
<path d="M860.114 497.554C848.219 571.442 816.532 606.552 808.34 614.29C807.713 617.051 801.159 615.29 781.651 615.775C664.231 615.774 176.825 615.811 176.648 615.811C176.665 615.828 152.685 579.018 146.898 529.995C133.915 419.395 188.621 390.694 278.103 376.364C332.258 364.552 382.805 335.075 412.52 284.982C433.198 246.401 464.782 215.19 512.269 213.943C589.838 208.505 615.693 242.406 686.466 283.649C798.115 344.126 870.638 424.093 860.114 497.554Z" fill="url(#paint0_linear_894_723)"/>
<path d="M518.163 734.737C518.163 734.737 539.847 559.298 362.034 557.405C184.221 555.512 82.6132 546.677 52.8744 426.142C23.1356 305.607 197.256 360.16 357.709 443.322C518.163 526.482 699.693 453.909 656.944 222.305C614.194 -9.29863 369.778 -36.7503 394.561 47.8135C419.343 132.377 667.786 290.146 552.355 402.002C443.345 507.639 3 47.8135 3 47.8135M670.319 79.5855C808.96 236.516 895.658 394.186 779.278 468.992C504.477 645.631 569.586 704.445 569.586 704.445C569.586 704.445 593.439 744.518 635.569 686.459C677.699 628.401 702.797 613.593 841.42 570.827C980.043 528.06 968.891 326.748 968.891 326.748L670.319 79.5855Z" stroke="#ECECEC" stroke-width="7" stroke-miterlimit="10"/>
<path d="M121.092 424.403C109.032 439.245 96.1961 515.8 147.328 529.646C147.328 529.646 167.972 535.647 171.776 561.756C175.58 587.865 210.306 631.956 251.69 609.15C293.074 586.344 275.845 528.93 257.12 510.715C238.394 492.5 241.186 492.143 231.353 473.454C221.519 454.766 220.491 453.568 210.275 457.314C200.058 461.06 208.345 486.374 218.476 500.591C228.607 514.808 216.992 522.944 212.731 520.386C208.471 517.829 205.399 497.388 182.328 494.58C159.257 491.77 157.657 465.822 156.418 451.132C155.918 445.195 154.216 439.631 152.367 435.106C151.135 436.196 149.597 436.798 147.964 436.679C144.312 436.412 141.587 432.647 141.878 428.27C142.042 425.8 143.133 423.662 144.708 422.317C142.554 420.573 138.734 418.07 134.241 417.741C130.165 417.443 125.537 418.934 121.092 424.403Z" fill="url(#paint1_linear_894_723)"/>
<g style="mix-blend-mode:overlay" opacity="0.34">
<g style="mix-blend-mode:overlay">
<path d="M260.201 603.331C258.094 598.385 255.51 593.692 252.044 588.941C246.04 575.262 245.217 562.621 244.418 550.295C243.431 535.076 242.499 520.702 232.343 505.393C217.098 482.412 215.569 463.867 215.821 455.683C215.122 455.784 214.367 455.96 213.547 456.198C213.321 464.985 215.154 483.489 230.511 506.639C240.333 521.443 241.246 535.525 242.213 550.431C242.896 560.973 243.594 571.739 247.444 583.205C235.819 569.913 216.291 555.24 180.319 532.738C144.996 510.643 133.224 479.419 129.569 457.118C126.781 440.113 128.149 425.568 129.229 418.33C128.443 418.589 127.648 418.927 126.849 419.368C125.794 427.141 124.729 441.177 127.374 457.388C131.093 480.178 143.098 512.082 179.164 534.643C220.166 560.292 239.525 575.853 250.015 589.84C252.129 594.651 254.869 599.594 258.456 604.702L258.473 604.69C258.478 604.703 258.483 604.717 258.488 604.73C259.078 604.276 259.652 603.816 260.21 603.345L260.201 603.331Z" fill="#690058"/>
</g>
</g>
<path d="M104.586 443.17C89.4332 460.646 114.963 486.12 136.921 496.452C158.879 506.784 169.765 516.77 181.208 571.196C192.652 625.621 234.96 616.172 244.442 612.205C253.922 608.237 269.55 579.559 255.278 544.788C241.007 510.017 219.828 512.722 220.523 470.117C221.218 427.512 193.309 445.151 185.52 461.51C177.731 477.869 170.029 476.507 155.385 461.019C150.661 456.023 146.965 452.22 144.118 449.353C144.033 451.302 143.79 453.156 143.254 454.763C142.894 455.841 142.212 456.721 141.353 457.326C140.103 458.208 138.477 458.51 136.932 457.999C134.323 457.137 132.924 454.29 133.808 451.642C134.473 449.646 134.106 444.745 133.862 441.503C133.813 440.856 133.768 440.249 133.729 439.668C130.327 437.206 123.344 433.322 115.462 435.645C111.937 436.684 108.232 438.965 104.586 443.17Z" fill="url(#paint2_linear_894_723)"/>
<g style="mix-blend-mode:overlay" opacity="0.34">
<g style="mix-blend-mode:overlay">
<path d="M200.194 445.777C197.843 461.489 192.603 511.186 211.524 555.823C207.57 549.426 203.495 542.224 199.374 534.119C171.758 479.813 115.252 453.444 101.632 447.732C101.317 448.424 101.039 449.121 100.823 449.83C114.287 455.48 170.137 481.55 197.399 535.164C220.348 580.292 241.801 598.387 252.149 605.034C252.568 604.426 252.982 603.784 253.39 603.11C250.313 601.118 246.18 598.059 241.268 593.479C235.932 588.502 229.115 581.17 221.496 570.711C192.691 521.82 200.192 459.81 202.61 444.628C201.804 444.951 200.997 445.337 200.194 445.777Z" fill="#690058"/>
</g>
</g>
<path d="M231.542 597.547L228.086 599.234L163.291 461.375L201.525 388.653L204.901 390.495L167.585 461.474L231.542 597.547Z" fill="#253138"/>
<path d="M160.911 464.426C162.539 466.973 165.887 467.694 168.387 466.035C170.888 464.377 171.595 460.967 169.967 458.42C168.338 455.873 164.991 455.153 162.49 456.812C159.99 458.47 159.283 461.879 160.911 464.426Z" fill="#2D3092"/>
<path d="M198.053 392.996C199.681 395.543 203.028 396.265 205.528 394.606C208.03 392.947 208.737 389.538 207.108 386.99C205.48 384.443 202.132 383.723 199.632 385.381C197.131 387.04 196.425 390.449 198.053 392.996Z" fill="#F5A623"/>
<path d="M237.303 385.572L218.943 419.531L204.263 407.852L199.87 404.351C197.249 402.263 196.503 398.546 198.11 395.577L206.307 380.438C207.913 377.471 211.396 376.13 214.527 377.272L219.779 379.186L237.303 385.572Z" fill="#FFD000"/>
<path d="M237.304 385.572L218.944 419.531L204.265 407.852L219.78 379.187L237.304 385.572Z" fill="#F5A623" fill-opacity="0.2"/>
<path d="M273.122 396.942L247.509 444.294C245.838 447.385 241.832 448.187 239.135 445.972L218.15 428.725C211.818 423.522 210.065 414.441 213.991 407.183L224.415 387.91C228.341 380.652 236.813 377.31 244.515 379.981L270.039 388.836C273.318 389.973 274.793 393.851 273.122 396.942Z" fill="#E4BA00"/>
<path d="M261.981 611.161H196.456C198.792 598.983 209.268 590.196 221.45 590.196H236.986C249.168 590.196 259.645 598.983 261.981 611.161Z" fill="url(#paint3_linear_894_723)"/>
<path d="M755.658 544.424L750.285 613.231H713.12L707.748 544.424H755.658Z" fill="url(#paint4_linear_894_723)"/>
<path d="M709.103 561.837L712.052 599.613H751.359L754.308 561.847L709.103 561.837Z" fill="url(#paint5_linear_894_723)"/>
<path d="M718.187 580.886C718.187 588.158 723.963 594.052 731.089 594.052C738.215 594.052 743.991 588.158 743.991 580.886C743.991 573.615 738.215 567.721 731.089 567.721C723.963 567.721 718.187 573.615 718.187 580.886Z" fill="url(#paint6_linear_894_723)"/>
<g style="mix-blend-mode:overlay" opacity="0.66">
<g style="mix-blend-mode:overlay">
<g style="mix-blend-mode:overlay">
<path d="M728.944 583.096C729.829 582.194 730.044 581.565 730.294 580.837C730.574 580.02 730.892 579.094 732.059 577.904C733.227 576.714 734.137 576.391 734.939 576.106C735.462 575.919 735.934 575.751 736.497 575.321C735.303 574.209 733.652 573.734 731.82 573.981C729.987 574.228 728.179 575.178 726.728 576.656C725.277 578.134 724.344 579.975 724.102 581.843C723.924 583.206 724.127 584.471 724.673 585.528C725.461 584.921 726.123 584.685 726.726 584.471C727.441 584.216 728.059 583.997 728.944 583.096Z" fill="#E3EBF7"/>
</g>
</g>
<g style="mix-blend-mode:overlay">
<g style="mix-blend-mode:overlay">
<path d="M735.516 577.791C734.801 578.044 734.183 578.264 733.298 579.166C732.412 580.067 732.197 580.696 731.948 581.425C731.668 582.242 731.351 583.168 730.183 584.358C729.014 585.548 728.105 585.871 727.304 586.156C726.779 586.342 726.307 586.51 725.744 586.941C726.732 587.86 728.033 588.345 729.489 588.345C729.794 588.345 730.105 588.323 730.422 588.28C732.254 588.033 734.063 587.084 735.514 585.606C736.964 584.128 737.898 582.286 738.14 580.419C738.317 579.055 738.115 577.79 737.568 576.733C736.781 577.341 736.119 577.576 735.516 577.791Z" fill="#E3EBF7"/>
</g>
</g>
</g>
<path d="M757.303 549.278H705.29C704.569 549.278 703.983 548.682 703.983 547.947V540.576C703.983 539.842 704.569 539.246 705.29 539.246H757.303C758.024 539.246 758.609 539.842 758.609 540.576V547.947C758.609 548.682 758.024 549.278 757.303 549.278Z" fill="white"/>
<path d="M754.866 539.246H707.728L709.974 532.162C710.277 531.207 711.151 530.559 712.137 530.559H750.456C751.442 530.559 752.316 531.207 752.619 532.162L754.866 539.246Z" fill="#F8EDE0"/>
<path d="M737.061 534.392H726.491C725.461 534.392 724.627 533.542 724.627 532.494V530.559H738.925V532.494C738.925 533.542 738.091 534.392 737.061 534.392Z" fill="#E7CCAC"/>
<path d="M741.523 474.653C746.748 482.13 750.691 488.346 751.239 494.691C751.954 503.785 745.786 514.896 742.291 519.189C743.659 513.13 746.492 506.87 745.272 495.757C744.287 485.942 743.307 485.432 741.523 474.653Z" fill="white" fill-opacity="0.7"/>
<path d="M717.164 468.651C722.388 476.128 726.331 482.344 726.88 488.689C727.595 497.783 721.427 508.894 717.931 513.187C719.3 507.129 722.132 500.869 720.913 489.755C719.928 479.94 718.948 479.431 717.164 468.651Z" fill="white" fill-opacity="0.7"/>
<path d="M728.984 467.089C735.393 476.261 740.23 483.886 740.903 491.669C741.78 502.825 734.214 516.455 729.926 521.721C731.604 514.289 735.079 506.61 733.583 492.977C732.375 480.937 731.172 480.312 728.984 467.089Z" fill="white" fill-opacity="0.7"/>
<path d="M539.758 392.991C539.758 392.991 504.195 401.726 482.383 419.197C460.571 436.669 445.591 525.481 445.591 525.481C445.591 525.481 433.413 528.393 435.586 540.041C435.586 540.041 455.939 537.216 466.488 559.434C469.061 564.821 471.033 571.693 472.005 580.429C472.005 580.429 482.755 579.73 483.441 570.237C483.441 570.237 493.103 560.394 495.476 541.788C495.533 541.439 495.59 541.118 495.619 540.769C495.619 540.769 496.691 591.61 491.317 610.654L641.793 610.76L673.19 610.654C673.19 610.654 676.152 601.331 674.491 595.154C674.491 595.154 685.535 579.641 674.291 560.892C674.291 560.892 676.778 455.217 662.484 430.117C648.19 405.017 576.379 390.457 576.379 390.457L539.758 392.991Z" fill="url(#paint7_linear_894_723)"/>
<g style="mix-blend-mode:multiply">
<g style="mix-blend-mode:multiply">
<path d="M495.303 541.66C492.931 560.266 483.268 570.109 483.268 570.109C482.582 579.602 471.833 580.3 471.833 580.3C470.861 571.565 468.888 564.693 466.315 559.306C472.005 553.715 478.466 545.066 482.21 532.4C489.786 506.892 484.955 479.17 484.612 477.191C490.787 501.039 494.16 530.304 495.303 541.66Z" fill="#9013FE" fill-opacity="0.3"/>
</g>
</g>
<g style="mix-blend-mode:multiply">
<g style="mix-blend-mode:multiply">
<path d="M674.117 560.764C674.117 560.764 642.485 542.898 620.074 559.801C620.857 542.409 620.568 503.37 605.849 468.207C605.849 468.207 609.066 539.548 580.478 559.567C551.891 579.586 503.291 575.582 491.143 610.526H673.016C674.822 604.4 675.11 599.142 674.317 595.025C674.317 595.025 685.36 581.129 674.117 560.764Z" fill="#BD10E0" fill-opacity="0.3"/>
</g>
</g>
<path d="M588.646 590.167C588.646 590.167 621.035 567.088 655.859 575.317C686.897 582.653 681.536 605.517 673.016 610.526H585.968L588.646 590.167Z" fill="#FDB09E"/>
<path d="M591.441 591.014C591.441 591.014 577.101 581.129 565.697 570.284C564.522 569.167 562.973 568.553 561.367 568.566C555.393 568.617 540.175 568.905 529.511 570.48C528.127 570.685 527.073 571.855 527.016 573.27C526.946 574.981 527.129 577.318 528.261 579.353C528.261 579.353 530.737 582.544 534.271 584.825C534.271 584.825 532.746 586.795 532.592 587.803C532.439 588.81 533.5 592.236 535.195 593.183C535.195 593.183 534.543 594.109 534.747 595.794C534.949 597.479 536.349 600.03 537.621 600.393C538.894 600.756 541.266 600.935 541.266 600.935C541.266 600.935 540.054 602.855 540.046 604.247C540.039 605.639 542.131 607.994 543.588 608.49C545.045 608.985 555.408 608.666 557.424 608.168C559.44 607.672 563.852 603.18 563.852 603.18C563.852 603.18 578.926 611.164 591.597 611.117L591.441 591.014Z" fill="#FFC6AD"/>
<path d="M527.807 578.22L543.703 577.492C543.703 577.492 537.661 581.95 534.341 584.875C534.341 584.875 528.448 580.976 527.807 578.22Z" fill="#FDB09E"/>
<path d="M563.801 603.257L558.263 600.734L550.356 605.481C550.356 605.481 557.021 601.634 562.767 604.265L563.801 603.257Z" fill="#FDB09E"/>
<path d="M565.411 569.963C565.411 569.963 560.117 585.715 565.789 593.47C571.462 601.224 591.588 611.099 591.588 611.099C591.588 611.099 591.511 601.271 591.43 590.949C591.43 590.949 573.537 578.015 565.411 569.963Z" fill="#FDB09E"/>
<path d="M535.367 593.051L548.893 584.055C549.28 583.797 549.803 583.908 550.059 584.302C550.317 584.695 550.211 585.224 549.825 585.481C549.804 585.494 549.782 585.508 549.761 585.52L535.496 593.268C535.435 593.302 535.36 593.278 535.327 593.217C535.295 593.158 535.314 593.086 535.367 593.051Z" fill="#FDB09E"/>
<path d="M541.204 600.943L553.923 591.776C554.303 591.503 554.834 591.594 555.107 591.981C555.381 592.368 555.293 592.903 554.913 593.177C554.891 593.193 554.868 593.209 554.845 593.222L541.302 601.096C541.258 601.121 541.204 601.106 541.179 601.062C541.156 601.021 541.167 600.97 541.204 600.943Z" fill="#FDB09E"/>
<path d="M435.412 540.458L388.168 602.23L434.289 602.093L471.832 580.846C471.832 580.846 480.077 537.378 435.412 540.458Z" fill="#F49186"/>
<path d="M424.15 601.621C423.822 601.663 393.319 602.832 393.319 602.832C393.319 602.832 390.72 585.513 391.174 585.6C391.63 585.687 415.11 580.732 416.353 580.911C417.597 581.09 426.579 599.724 426.579 599.724L424.15 601.621Z" fill="#F49186"/>
<path d="M428.848 593.856L422.465 596.478C420.362 597.343 419.189 599.638 419.7 601.889C420.026 603.321 421.412 604.229 422.826 603.933L428.836 602.68L431.088 602.327C432.177 602.155 433.068 601.353 433.37 600.272C433.773 598.824 434.275 596.952 434.291 596.547C434.317 595.865 429.295 582.589 429.295 582.589L428.848 593.856Z" fill="#FDB09E"/>
<path d="M391.018 579.664L392.471 579.327C393.193 579.159 393.842 578.758 394.321 578.183L395.91 576.278C396.577 575.478 397.563 575.026 398.594 575.048L400.534 575.09C401.595 575.113 402.606 574.635 403.273 573.794L404.215 572.606C404.96 571.666 406.13 571.186 407.307 571.337L411.091 571.82C411.697 571.897 412.313 571.809 412.874 571.562L417.492 569.534C417.492 569.534 429.209 573.564 429.846 586.715L429.248 592.804C429.109 594.22 428.072 595.375 426.699 595.64L422.083 596.533C421.035 596.737 420.008 596.09 419.718 595.044L417.412 586.737L418.798 595.158C419.044 596.653 418.112 598.085 416.665 598.436L413.053 599.312C411.518 599.684 409.981 598.705 409.639 597.137L407.354 586.679L408.706 597.541C408.885 598.981 407.885 600.296 406.471 600.478L403.071 600.918C401.879 601.072 400.754 600.318 400.422 599.142L397.045 587.187L399.46 599.044C399.697 600.209 399.019 601.364 397.899 601.703L394.991 602.583C393.722 602.967 392.386 602.248 391.981 600.966L387.804 587.736C387.403 586.465 387.425 585.096 387.867 583.839L388.554 581.889C388.949 580.768 389.878 579.929 391.018 579.664Z" fill="#FFC6AD"/>
<path d="M582.855 394.762C576.852 413.366 567.004 438.975 545.291 438.435C526.332 437.963 529.304 414.851 533.338 402.203C533.937 400.324 533.543 401.385 533.997 400.14C531.985 388.324 531.277 376.158 530.271 364.15C547.28 356.75 564.335 349.61 581.252 341.907C581.317 344.626 581.329 344.762 581.343 347.764C581.356 350.767 581.304 342.174 581.338 349.689C581.371 357.205 581.612 383.404 582.855 394.762Z" fill="#FDB09E"/>
<path d="M533.555 401.291C533.449 401.986 533.856 400.389 533.976 400.205C532.012 388.243 531.266 376.194 530.271 364.149C547.303 356.709 564.289 349.694 581.29 341.837C581.29 341.837 581.853 342.248 580.588 351.084C577.887 363.684 563.862 410.971 533.555 401.291Z" fill="#FF856A"/>
<path d="M508.021 240.003C506.609 244.72 504.761 253.341 508.022 258.668C500.974 254 502.119 253.903 496.644 248.407C490.702 242.443 488.698 273.568 489.739 279.07C490.782 284.572 491.791 300.799 499.777 304.068C502.129 316.599 509.137 326.259 516.077 331.65C525.569 339.027 543.666 339.671 560.131 340.159C567.177 340.368 573.923 340.547 579.57 341.213C580.762 340.045 581.865 339.054 582.921 338.147C582.888 340.056 582.974 341.848 583.382 342.275C584.337 343.273 583.579 355.062 583.579 355.062C583.579 355.062 588.07 344.54 588.393 339.086C588.55 336.431 588.663 334.54 588.737 333.291C590.462 331.784 592.247 330.067 594.279 327.708C599.311 321.869 604.002 311.15 606.586 302.621C607.071 305.81 607.26 308.151 607.26 308.151C609.164 296.446 609.169 290.982 608.666 288.459C608.167 284.873 606.334 281.952 602.078 280.658C608.637 272.55 601.131 257.759 601.131 257.759C601.517 261.448 600.743 265.646 599.841 269.003C599.551 266.145 598.967 263.388 597.063 260.663C592.198 250.121 570.518 244.707 570.518 244.707C571.822 245.316 574.109 247.589 576.542 250.301C567.225 248.985 556.296 249.908 545.703 252.418C535.492 254.838 518.46 243.482 511.874 238.699C511.492 238.422 511.068 238.27 510.644 238.229C509.515 238.12 508.382 238.798 508.021 240.003Z" fill="url(#paint8_linear_894_723)"/>
<path d="M581.087 335.364C573.674 327.068 572.242 312.358 579.214 306.268C569.452 314.796 544.931 309.341 544.931 309.341C544.931 309.341 551.02 307.66 552.858 301.837C552.858 301.837 524.564 304.58 519.054 307.73C519.054 307.73 519.153 302.344 524.934 298.377C517.803 298.261 511.924 299.216 511.224 302.557C509.347 311.505 510.088 364.815 526.573 378.935C543.058 393.054 564.764 375.645 573.405 366.848C582.047 358.05 578.944 354.256 583.93 346.506C590.485 344.612 592.923 345.786 595.333 333.735C597.742 321.685 587.629 317.014 581.087 335.364Z" fill="#FDB09E"/>
<path d="M468.721 602.093H305.078C304.089 602.093 303.288 602.909 303.288 603.916V609.354C303.288 610.36 304.089 611.177 305.078 611.177H468.721C469.71 611.177 470.51 610.36 470.51 609.354V603.916C470.51 602.909 469.71 602.093 468.721 602.093Z" fill="#6A00A7"/>
<path d="M347.083 477.133H208.366C202.088 477.133 197.773 483.615 200.053 489.621L240.57 596.388C241.906 599.906 245.207 602.223 248.884 602.223H392.497C396.42 602.223 399.117 598.173 397.692 594.419L355.396 482.968C354.061 479.45 350.761 477.133 347.083 477.133Z" fill="#FEDB13"/>
<path d="M207.493 479.721C201.295 479.721 197.036 486.069 199.286 491.951L239.286 596.503C240.604 599.949 243.863 602.218 247.493 602.218H389.268C393.14 602.218 395.803 598.251 394.396 594.575L352.642 485.436C351.324 481.99 348.065 479.721 344.434 479.721H207.493Z" fill="url(#paint9_linear_894_723)"/>
<g style="mix-blend-mode:overlay" opacity="0.66">
<g style="mix-blend-mode:overlay">
<path d="M303.102 541.932C306.431 550.19 304.587 558.784 298.985 561.128C293.382 563.471 286.141 558.677 282.812 550.419C279.483 542.162 281.327 533.568 286.929 531.224C292.532 528.88 299.773 533.675 303.102 541.932Z" fill="#E3EBF7"/>
</g>
</g>
<path d="M396.297 602.093H245.619C244.635 602.093 243.838 602.905 243.838 603.907V609.362C243.838 610.364 244.635 611.177 245.619 611.177H396.297C397.28 611.177 398.078 610.364 398.078 609.362V603.907C398.078 602.905 397.28 602.093 396.297 602.093Z" fill="#AF8200"/>
<path d="M841.695 620.846H145.588V611.07H841.695V620.846ZM841.695 620.846H687.322V611.07H841.695V620.846Z" fill="#9013FE"/>
<path d="M841.695 620.846H687.322V611.07H841.695V620.846Z" fill="#BD10E0"/>
<path d="M636.102 603.063H489.353V611.07H636.102V603.063ZM590.839 603.063H636.103V611.07H590.839V603.063Z" fill="#DE5BF8"/>
<path d="M590.839 603.063H636.103V611.07H590.839V603.063Z" fill="#B969FF"/>
<defs>
<linearGradient id="paint0_linear_894_723" x1="481.11" y1="362.508" x2="561.268" y2="704.249" gradientUnits="userSpaceOnUse">
<stop offset="0.01" stop-color="#EFD9F5"/>
<stop offset="0.41" stop-color="#FFFABC"/>
<stop offset="1" stop-color="#FFFEDD"/>
</linearGradient>
<linearGradient id="paint1_linear_894_723" x1="243.868" y1="601.851" x2="135.147" y2="448.033" gradientUnits="userSpaceOnUse">
<stop stop-color="#6956AB"/>
<stop offset="0.41" stop-color="#867FC0"/>
<stop offset="1" stop-color="#A4A8D5"/>
</linearGradient>
<linearGradient id="paint2_linear_894_723" x1="248.214" y1="616.441" x2="154.599" y2="537.065" gradientUnits="userSpaceOnUse">
<stop stop-color="#6956AB"/>
<stop offset="0.41" stop-color="#867FC0"/>
<stop offset="1" stop-color="#A4A8D5"/>
</linearGradient>
<linearGradient id="paint3_linear_894_723" x1="205.212" y1="615.391" x2="246.047" y2="589.141" gradientUnits="userSpaceOnUse">
<stop stop-color="#666666"/>
<stop offset="0.41" stop-color="#414141"/>
<stop offset="1" stop-color="#1C1C1C"/>
</linearGradient>
<linearGradient id="paint4_linear_894_723" x1="731.927" y1="542.395" x2="731.867" y2="615.845" gradientUnits="userSpaceOnUse">
<stop stop-color="#F1DBC1"/>
<stop offset="0.41" stop-color="#ECCDB7"/>
<stop offset="1" stop-color="#E7BFAD"/>
</linearGradient>
<linearGradient id="paint5_linear_894_723" x1="731.68" y1="561" x2="732.021" y2="599.468" gradientUnits="userSpaceOnUse">
<stop stop-color="#C8BC33"/>
<stop offset="0.41" stop-color="#AE9421"/>
<stop offset="1" stop-color="#948A0F"/>
</linearGradient>
<linearGradient id="paint6_linear_894_723" x1="719.865" y1="585.888" x2="743.815" y2="573.741" gradientUnits="userSpaceOnUse">
<stop offset="0.01" stop-color="#C69C6D"/>
<stop offset="0.41" stop-color="#A97F53"/>
<stop offset="1" stop-color="#8C6239"/>
</linearGradient>
<linearGradient id="paint7_linear_894_723" x1="589.353" y1="466.862" x2="402.455" y2="465.902" gradientUnits="userSpaceOnUse">
<stop stop-color="#FDC534"/>
<stop offset="0.41" stop-color="#E5BB00"/>
<stop offset="1" stop-color="#BC9900"/>
</linearGradient>
<linearGradient id="paint8_linear_894_723" x1="604.65" y1="299.625" x2="499.992" y2="264.608" gradientUnits="userSpaceOnUse">
<stop stop-color="#5E3434"/>
<stop offset="0.41" stop-color="#4F2C2C"/>
<stop offset="1" stop-color="#3F2323"/>
</linearGradient>
<linearGradient id="paint9_linear_894_723" x1="279.598" y1="474.521" x2="285.266" y2="607.253" gradientUnits="userSpaceOnUse">
<stop stop-color="#FF9F00"/>
<stop offset="0.41" stop-color="#F5A623"/>
<stop offset="1" stop-color="#F8E71C"/>
</linearGradient>
</defs>
</svg>
