<svg width="65" height="65" viewBox="0 0 65 65" fill="none" xmlns="http://www.w3.org/2000/svg">
<path d="M35.1849 35.4519C39.6721 35.4519 43.3097 39.42 43.3097 44.3149L43.3055 48.7368C43.8627 59.5883 36.2007 65 21.9923 65C7.82975 65 0 59.6592 0 48.8916V44.3149C0 39.42 3.63762 35.4519 8.12485 35.4519H35.1849ZM56.8544 35.4519C61.3416 35.4519 64.9792 39.42 64.9792 44.3149L64.9752 47.4263C65.4649 57.1605 58.6949 62.0409 46.3203 62.0409C44.6405 62.0409 43.0613 61.9516 41.5865 61.773C43.161 60.1932 44.3336 58.3074 45.0809 56.1167L46.3203 56.1322C55.9846 56.1322 59.8483 53.347 59.5627 47.5882V44.3149C59.5627 42.6833 58.3501 41.3606 56.8544 41.3606L45.6767 41.3605C45.1283 39.0365 43.9482 36.9893 42.348 35.4495L56.8544 35.4519ZM35.1849 41.3606H8.12485C6.62911 41.3606 5.41657 42.6833 5.41657 44.3149V48.8916C5.41657 55.6628 10.4428 59.0913 21.9923 59.0913C33.4959 59.0913 38.24 55.7405 37.8931 48.902V44.3149C37.8931 42.6833 36.6806 41.3606 35.1849 41.3606ZM21.6663 0C29.1462 0 35.2099 6.61456 35.2099 14.774C35.2099 22.9335 29.1462 29.5481 21.6663 29.5481C14.1863 29.5481 8.12265 22.9335 8.12265 14.774C8.12265 6.61456 14.1863 0 21.6663 0ZM48.7491 5.90866C54.7321 5.90866 59.5822 11.1994 59.5822 17.726C59.5822 24.2525 54.7321 29.5433 48.7491 29.5433C42.7661 29.5433 37.916 24.2525 37.916 17.726C37.916 11.1994 42.7661 5.90866 48.7491 5.90866ZM21.6663 5.90866C17.1778 5.90866 13.5392 9.87782 13.5392 14.774C13.5392 19.6702 17.1778 23.6394 21.6663 23.6394C26.1547 23.6394 29.7933 19.6702 29.7933 14.774C29.7933 9.87782 26.1547 5.90866 21.6663 5.90866ZM48.7491 11.8173C45.7576 11.8173 43.3325 14.4627 43.3325 17.726C43.3325 20.9892 45.7576 23.6346 48.7491 23.6346C51.7406 23.6346 54.1657 20.9892 54.1657 17.726C54.1657 14.4627 51.7406 11.8173 48.7491 11.8173Z" fill="#F6BE00"/>
</svg>
