<svg width="61" height="70" viewBox="0 0 61 70" fill="none" xmlns="http://www.w3.org/2000/svg">
<path d="M53.375 0C55.3973 0 57.3367 0.737498 58.7667 2.05025C60.1967 3.36301 61 5.14348 61 7V63C61 64.8565 60.1967 66.637 58.7667 67.9497C57.3367 69.2625 55.3973 70 53.375 70H7.625C5.60272 70 3.66328 69.2625 2.23331 67.9497C0.803346 66.637 0 64.8565 0 63V7C0 5.14348 0.803346 3.36301 2.23331 2.05025C3.66328 0.737498 5.60272 0 7.625 0H53.375ZM53.375 7H34.3125V35L24.7812 27.125L15.25 35V7H7.625V63H53.375V7Z" fill="#F6BE00"/>
</svg>
